<mxfile host="app.diagrams.net" modified="2023-02-28T23:13:29.438Z" agent="5.0 (Macintosh; Intel Mac OS X 10_15_7) AppleWebKit/537.36 (KHTML, like Gecko) Chrome/110.0.0.0 Safari/537.36" etag="5v9RT-9qjJ6taE7g61CX" version="20.8.23" type="github">
  <diagram name="Page-1" id="_Rf74EMw8om4piH5J4HJ">
    <mxGraphModel dx="2073" dy="802" grid="1" gridSize="10" guides="1" tooltips="1" connect="1" arrows="1" fold="1" page="1" pageScale="1" pageWidth="827" pageHeight="1169" math="0" shadow="0">
      <root>
        <mxCell id="0" />
        <mxCell id="1" parent="0" />
        <mxCell id="5kcq2A8MCsJthbVslvMD-7" value="" style="rounded=0;whiteSpace=wrap;html=1;strokeColor=#999999;strokeWidth=2;fontSize=36;fontColor=#999999;fillColor=none;" vertex="1" parent="1">
          <mxGeometry x="110" y="160" width="340" height="230" as="geometry" />
        </mxCell>
        <mxCell id="5kcq2A8MCsJthbVslvMD-1" value="&lt;font style=&quot;font-size: 36px;&quot;&gt;22&lt;/font&gt;" style="ellipse;whiteSpace=wrap;html=1;aspect=fixed;strokeWidth=3;fillColor=none;strokeColor=#3d9970;fontColor=#999999;" vertex="1" parent="1">
          <mxGeometry x="130" y="180" width="80" height="80" as="geometry" />
        </mxCell>
        <mxCell id="5kcq2A8MCsJthbVslvMD-3" value="&lt;font style=&quot;font-size: 36px;&quot;&gt;23&lt;/font&gt;" style="ellipse;whiteSpace=wrap;html=1;aspect=fixed;strokeWidth=3;fillColor=#5c7cfa;strokeColor=none;fontColor=#FFFFFF;" vertex="1" parent="1">
          <mxGeometry x="240" y="180" width="80" height="80" as="geometry" />
        </mxCell>
        <mxCell id="5kcq2A8MCsJthbVslvMD-4" value="&lt;font style=&quot;font-size: 36px;&quot;&gt;25&lt;/font&gt;" style="ellipse;whiteSpace=wrap;html=1;aspect=fixed;strokeWidth=8;fillColor=#2ECC40;strokeColor=#3d9970;fontColor=#FFFFFF;" vertex="1" parent="1">
          <mxGeometry x="130" y="290" width="80" height="80" as="geometry" />
        </mxCell>
        <mxCell id="5kcq2A8MCsJthbVslvMD-5" value="&lt;font style=&quot;font-size: 36px;&quot;&gt;26&lt;/font&gt;" style="ellipse;whiteSpace=wrap;html=1;aspect=fixed;strokeWidth=2;fillColor=#FF4136;strokeColor=#3d9970;fontColor=#FFFFFF;" vertex="1" parent="1">
          <mxGeometry x="240" y="290" width="80" height="80" as="geometry" />
        </mxCell>
        <mxCell id="5kcq2A8MCsJthbVslvMD-10" style="edgeStyle=orthogonalEdgeStyle;rounded=1;orthogonalLoop=1;jettySize=auto;html=1;exitX=0;exitY=0.5;exitDx=0;exitDy=0;fontSize=12;fontColor=#5c7cfa;" edge="1" parent="1" source="5kcq2A8MCsJthbVslvMD-9" target="5kcq2A8MCsJthbVslvMD-3">
          <mxGeometry relative="1" as="geometry" />
        </mxCell>
        <mxCell id="5kcq2A8MCsJthbVslvMD-9" value="&lt;font color=&quot;#5c7cfa&quot;&gt;&lt;b&gt;Blue&lt;/b&gt;&lt;/font&gt;: Missing data" style="text;html=1;strokeColor=none;fillColor=none;align=left;verticalAlign=middle;whiteSpace=wrap;rounded=0;fontSize=12;fontColor=#000000;" vertex="1" parent="1">
          <mxGeometry x="300" y="110" width="140" height="30" as="geometry" />
        </mxCell>
        <mxCell id="5kcq2A8MCsJthbVslvMD-12" style="edgeStyle=orthogonalEdgeStyle;rounded=1;orthogonalLoop=1;jettySize=auto;html=1;exitX=0;exitY=0.5;exitDx=0;exitDy=0;fontSize=12;fontColor=#000000;" edge="1" parent="1" source="5kcq2A8MCsJthbVslvMD-11" target="5kcq2A8MCsJthbVslvMD-3">
          <mxGeometry relative="1" as="geometry" />
        </mxCell>
        <mxCell id="5kcq2A8MCsJthbVslvMD-11" value="Filled circle: &lt;b&gt;occupied&lt;/b&gt; bed" style="text;html=1;strokeColor=none;fillColor=none;align=left;verticalAlign=middle;whiteSpace=wrap;rounded=0;fontSize=12;fontColor=#000000;" vertex="1" parent="1">
          <mxGeometry x="300" y="90" width="150" height="30" as="geometry" />
        </mxCell>
        <mxCell id="5kcq2A8MCsJthbVslvMD-14" style="edgeStyle=orthogonalEdgeStyle;rounded=1;orthogonalLoop=1;jettySize=auto;html=1;entryX=0.5;entryY=0;entryDx=0;entryDy=0;fontSize=12;fontColor=#000000;exitX=0;exitY=0.5;exitDx=0;exitDy=0;" edge="1" parent="1" source="5kcq2A8MCsJthbVslvMD-13" target="5kcq2A8MCsJthbVslvMD-1">
          <mxGeometry relative="1" as="geometry" />
        </mxCell>
        <mxCell id="5kcq2A8MCsJthbVslvMD-13" value="Empty circle: &lt;b&gt;unoccupied&lt;/b&gt; bed" style="text;html=1;strokeColor=none;fillColor=none;align=left;verticalAlign=middle;whiteSpace=wrap;rounded=0;fontSize=12;fontColor=#000000;" vertex="1" parent="1">
          <mxGeometry x="190" y="60" width="170" height="30" as="geometry" />
        </mxCell>
        <mxCell id="5kcq2A8MCsJthbVslvMD-16" style="edgeStyle=orthogonalEdgeStyle;rounded=1;orthogonalLoop=1;jettySize=auto;html=1;exitX=0;exitY=0.75;exitDx=0;exitDy=0;fontSize=12;fontColor=#FFDC00;" edge="1" parent="1" source="5kcq2A8MCsJthbVslvMD-20">
          <mxGeometry relative="1" as="geometry">
            <mxPoint x="170" y="370" as="targetPoint" />
          </mxGeometry>
        </mxCell>
        <mxCell id="5kcq2A8MCsJthbVslvMD-21" value="" style="group" vertex="1" connectable="0" parent="1">
          <mxGeometry x="190" y="410" width="120" height="90" as="geometry" />
        </mxCell>
        <mxCell id="5kcq2A8MCsJthbVslvMD-15" value="&lt;b style=&quot;&quot;&gt;&lt;font color=&quot;#2ecc40&quot;&gt;Very low&lt;/font&gt;&lt;/b&gt;: severity&lt;sup&gt;*&lt;/sup&gt;&lt;br&gt;&lt;b style=&quot;border-color: var(--border-color);&quot;&gt;&lt;font color=&quot;#ffdc00&quot; style=&quot;border-color: var(--border-color);&quot;&gt;Low&lt;/font&gt;&lt;/b&gt;: severity&lt;br style=&quot;border-color: var(--border-color);&quot;&gt;&lt;b style=&quot;border-color: var(--border-color);&quot;&gt;&lt;font color=&quot;#ff851b&quot; style=&quot;border-color: var(--border-color);&quot;&gt;Medium&lt;/font&gt;&lt;/b&gt;: severity&lt;br&gt;&lt;b style=&quot;border-color: var(--border-color);&quot;&gt;&lt;font color=&quot;#ff4136&quot; style=&quot;border-color: var(--border-color);&quot;&gt;High&lt;/font&gt;&lt;/b&gt;: severity" style="text;html=1;strokeColor=none;fillColor=none;align=left;verticalAlign=top;whiteSpace=wrap;rounded=0;fontSize=12;fontColor=#000000;" vertex="1" parent="5kcq2A8MCsJthbVslvMD-21">
          <mxGeometry y="20" width="120" height="70" as="geometry" />
        </mxCell>
        <mxCell id="5kcq2A8MCsJthbVslvMD-20" value="&lt;b style=&quot;&quot;&gt;Fill colour&lt;/b&gt;" style="text;html=1;strokeColor=none;fillColor=none;align=left;verticalAlign=top;whiteSpace=wrap;rounded=0;fontSize=12;fontColor=#000000;" vertex="1" parent="5kcq2A8MCsJthbVslvMD-21">
          <mxGeometry width="120" height="20" as="geometry" />
        </mxCell>
        <mxCell id="5kcq2A8MCsJthbVslvMD-23" value="&lt;font color=&quot;#000000&quot; style=&quot;font-size: 36px;&quot;&gt;27&lt;/font&gt;" style="whiteSpace=wrap;html=1;aspect=fixed;strokeColor=#3D9970;strokeWidth=3;fontSize=12;fontColor=#FFFFFF;fillColor=#FF851B;" vertex="1" parent="1">
          <mxGeometry x="350" y="290" width="80" height="80" as="geometry" />
        </mxCell>
        <mxCell id="5kcq2A8MCsJthbVslvMD-26" style="edgeStyle=orthogonalEdgeStyle;rounded=1;orthogonalLoop=1;jettySize=auto;html=1;exitX=0;exitY=0.5;exitDx=0;exitDy=0;entryX=0.5;entryY=1;entryDx=0;entryDy=0;fontSize=36;fontColor=#000000;" edge="1" parent="1" source="5kcq2A8MCsJthbVslvMD-24" target="5kcq2A8MCsJthbVslvMD-23">
          <mxGeometry relative="1" as="geometry" />
        </mxCell>
        <mxCell id="5kcq2A8MCsJthbVslvMD-24" value="&amp;nbsp; Square: user&amp;nbsp;&lt;b&gt;selected &lt;/b&gt;bed&lt;br&gt;&amp;nbsp; Detail in the inspector panel" style="text;html=1;strokeColor=none;fillColor=none;align=left;verticalAlign=top;whiteSpace=wrap;rounded=0;fontSize=12;fontColor=#000000;" vertex="1" parent="1">
          <mxGeometry x="410" y="400" width="170" height="30" as="geometry" />
        </mxCell>
        <mxCell id="5kcq2A8MCsJthbVslvMD-27" value="&lt;font style=&quot;font-size: 11px;&quot;&gt;&lt;i&gt;&lt;sup&gt;&lt;b&gt;*&lt;/b&gt;&lt;/sup&gt;Severity is context dependent&lt;br&gt;&amp;nbsp;e.g. NEWS for ward patients, Work Intensity Metric for ICU&lt;/i&gt;&lt;/font&gt;" style="text;html=1;strokeColor=none;fillColor=none;align=left;verticalAlign=top;whiteSpace=wrap;rounded=0;fontSize=12;fontColor=#000000;" vertex="1" parent="1">
          <mxGeometry x="110" y="500" width="340" height="50" as="geometry" />
        </mxCell>
        <mxCell id="5kcq2A8MCsJthbVslvMD-29" style="rounded=1;orthogonalLoop=1;jettySize=auto;html=1;exitX=0;exitY=0.5;exitDx=0;exitDy=0;entryX=0.5;entryY=0;entryDx=0;entryDy=0;fontSize=11;fontColor=#000000;edgeStyle=orthogonalEdgeStyle;elbow=vertical;" edge="1" parent="1" source="5kcq2A8MCsJthbVslvMD-28" target="5kcq2A8MCsJthbVslvMD-4">
          <mxGeometry relative="1" as="geometry">
            <Array as="points">
              <mxPoint x="170" y="275" />
            </Array>
          </mxGeometry>
        </mxCell>
        <mxCell id="5kcq2A8MCsJthbVslvMD-30" style="edgeStyle=orthogonalEdgeStyle;rounded=1;orthogonalLoop=1;jettySize=auto;html=1;exitX=0;exitY=0.5;exitDx=0;exitDy=0;entryX=0.5;entryY=0;entryDx=0;entryDy=0;fontSize=11;fontColor=#000000;" edge="1" parent="1" source="5kcq2A8MCsJthbVslvMD-28" target="5kcq2A8MCsJthbVslvMD-5">
          <mxGeometry relative="1" as="geometry">
            <Array as="points">
              <mxPoint x="280" y="275" />
            </Array>
          </mxGeometry>
        </mxCell>
        <mxCell id="5kcq2A8MCsJthbVslvMD-28" value="Discharge/step-down readiness&lt;br style=&quot;border-color: var(--border-color);&quot;&gt;&lt;i&gt;&lt;u&gt;Predicted status&lt;/u&gt;&lt;/i&gt;&lt;br&gt;&lt;b&gt;thicker&lt;/b&gt;:&lt;b&gt; &lt;/b&gt;more ready&lt;br&gt;thinner: less ready" style="text;html=1;strokeColor=none;fillColor=none;align=left;verticalAlign=top;whiteSpace=wrap;rounded=0;fontSize=12;fontColor=#000000;" vertex="1" parent="1">
          <mxGeometry x="470" y="260" width="200" height="30" as="geometry" />
        </mxCell>
        <mxCell id="5kcq2A8MCsJthbVslvMD-33" style="edgeStyle=orthogonalEdgeStyle;rounded=0;orthogonalLoop=1;jettySize=auto;html=1;exitX=1;exitY=0.5;exitDx=0;exitDy=0;entryX=0.071;entryY=-0.009;entryDx=0;entryDy=0;entryPerimeter=0;fontSize=11;fontColor=#000000;" edge="1" parent="1" source="5kcq2A8MCsJthbVslvMD-32" target="5kcq2A8MCsJthbVslvMD-7">
          <mxGeometry relative="1" as="geometry" />
        </mxCell>
        <mxCell id="5kcq2A8MCsJthbVslvMD-32" value="Patients group in a bay&lt;br&gt;(versus a sideroom)" style="text;html=1;strokeColor=none;fillColor=none;align=right;verticalAlign=middle;whiteSpace=wrap;rounded=0;fontSize=12;fontColor=#000000;" vertex="1" parent="1">
          <mxGeometry x="-60" y="120" width="170" height="30" as="geometry" />
        </mxCell>
        <mxCell id="5kcq2A8MCsJthbVslvMD-34" value="Bed number" style="text;html=1;strokeColor=none;fillColor=none;align=right;verticalAlign=middle;whiteSpace=wrap;rounded=0;fontSize=12;fontColor=#000000;" vertex="1" parent="1">
          <mxGeometry x="-20" y="205" width="120" height="30" as="geometry" />
        </mxCell>
        <mxCell id="5kcq2A8MCsJthbVslvMD-36" value="" style="endArrow=classic;html=1;rounded=0;fontSize=11;fontColor=#000000;elbow=vertical;exitX=1;exitY=0.5;exitDx=0;exitDy=0;" edge="1" parent="1" source="5kcq2A8MCsJthbVslvMD-34">
          <mxGeometry width="50" height="50" relative="1" as="geometry">
            <mxPoint x="110" y="219.92000000000002" as="sourcePoint" />
            <mxPoint x="150" y="219.92000000000002" as="targetPoint" />
          </mxGeometry>
        </mxCell>
        <mxCell id="5kcq2A8MCsJthbVslvMD-40" value="&lt;font color=&quot;#ffffff&quot; style=&quot;font-size: 36px;&quot;&gt;24&lt;/font&gt;" style="shape=offPageConnector;whiteSpace=wrap;html=1;strokeColor=#3D9970;strokeWidth=6;fontSize=11;fontColor=#000000;fillColor=#2ECC40;direction=north;spacingLeft=-11;" vertex="1" parent="1">
          <mxGeometry x="350" y="180" width="80" height="80" as="geometry" />
        </mxCell>
        <mxCell id="5kcq2A8MCsJthbVslvMD-43" style="edgeStyle=orthogonalEdgeStyle;rounded=1;orthogonalLoop=1;jettySize=auto;html=1;exitX=0;exitY=0.5;exitDx=0;exitDy=0;fontSize=36;fontColor=#FFFFFF;endArrow=classicThin;endFill=1;entryX=1;entryY=0.5;entryDx=0;entryDy=0;elbow=vertical;" edge="1" parent="1" source="5kcq2A8MCsJthbVslvMD-42" target="5kcq2A8MCsJthbVslvMD-40">
          <mxGeometry relative="1" as="geometry">
            <mxPoint x="430" y="200" as="targetPoint" />
            <Array as="points">
              <mxPoint x="390" y="165" />
            </Array>
          </mxGeometry>
        </mxCell>
        <mxCell id="5kcq2A8MCsJthbVslvMD-42" value="Discharge/step-down readiness&lt;br style=&quot;border-color: var(--border-color);&quot;&gt;&lt;u&gt;User decision&lt;br&gt;&lt;/u&gt;&amp;nbsp; Chevron: &lt;b&gt;ready&lt;/b&gt; for discharge&lt;br&gt;&amp;nbsp; Circle: not ready" style="text;html=1;strokeColor=none;fillColor=none;align=left;verticalAlign=top;whiteSpace=wrap;rounded=0;fontSize=12;fontColor=#000000;" vertex="1" parent="1">
          <mxGeometry x="470" y="150" width="180" height="30" as="geometry" />
        </mxCell>
        <mxCell id="5kcq2A8MCsJthbVslvMD-45" value="" style="shape=offPageConnector;whiteSpace=wrap;html=1;strokeColor=none;strokeWidth=6;fontSize=11;fontColor=#000000;fillColor=#5C7CFA;direction=north;spacingLeft=-11;" vertex="1" parent="1">
          <mxGeometry x="470" y="190" width="6" height="6" as="geometry" />
        </mxCell>
        <mxCell id="5kcq2A8MCsJthbVslvMD-46" value="" style="ellipse;whiteSpace=wrap;html=1;aspect=fixed;strokeWidth=3;fillColor=#5c7cfa;strokeColor=none;fontColor=#FFFFFF;" vertex="1" parent="1">
          <mxGeometry x="470" y="203" width="6" height="6" as="geometry" />
        </mxCell>
        <mxCell id="5kcq2A8MCsJthbVslvMD-47" value="" style="whiteSpace=wrap;html=1;aspect=fixed;strokeColor=none;strokeWidth=3;fontSize=12;fontColor=#FFFFFF;fillColor=#5C7CFA;" vertex="1" parent="1">
          <mxGeometry x="412" y="411" width="6" height="6" as="geometry" />
        </mxCell>
      </root>
    </mxGraphModel>
  </diagram>
</mxfile>
